<?xml version="1.0" standalone="no"?><!DOCTYPE svg PUBLIC "-//W3C//DTD SVG 1.1//EN" "http://www.w3.org/Graphics/SVG/1.1/DTD/svg11.dtd"><svg t="1726473816063" class="icon" viewBox="0 0 1024 1024" version="1.1" xmlns="http://www.w3.org/2000/svg" p-id="10523" xmlns:xlink="http://www.w3.org/1999/xlink" width="32" height="32"><path d="M919.3 63.9h-816c-22 0-40 18-40 40v560c0 22 18 40 40 40h298v193.7h-130c-16.6 0-30 13.4-30 30s13.4 30 30 30h480c16.6 0 30-13.4 30-30s-13.4-30-30-30h-130V703.9h298c22 0 40-18 40-40v-560c0-22-18-40-40-40z m-20 60v338.6h-776V123.9h776z m-338 773.7h-99.9V703.9h99.9v193.7z m-438-253.7V522.5h776v121.4h-776z" fill="#1296db" p-id="10524"></path></svg>