<?xml version="1.0" standalone="no"?><!DOCTYPE svg PUBLIC "-//W3C//DTD SVG 1.1//EN" "http://www.w3.org/Graphics/SVG/1.1/DTD/svg11.dtd"><svg t="1726473869976" class="icon" viewBox="0 0 1024 1024" version="1.1" xmlns="http://www.w3.org/2000/svg" p-id="12036" xmlns:xlink="http://www.w3.org/1999/xlink" width="32" height="32"><path d="M652.224 699.712H371.84a46.08 46.08 0 0 1-47.04-46.912V372.736a46.08 46.08 0 0 1 47.04-46.912h280.448a46.08 46.08 0 0 1 47.04 46.912V652.8a47.104 47.104 0 0 1-47.04 46.912zM418.752 605.888h186.496v-186.24H418.752v186.24z" fill="#1296db" p-id="12037"></path><path d="M865.344 912.512H158.72a46.08 46.08 0 0 1-47.04-46.976V160a46.08 46.08 0 0 1 47.04-46.912H865.28a46.08 46.08 0 0 1 47.04 46.912v705.536a47.104 47.104 0 0 1-47.04 46.976zM205.632 818.56h612.736V206.912H205.632v611.712z" fill="#1296db" p-id="12038"></path><path d="M373.312 981.312a45.44 45.44 0 0 1-45.44-45.376v-67.2a45.44 45.44 0 0 1 90.88 0v67.2a45.44 45.44 0 0 1-45.44 45.44zM652.224 981.312a45.44 45.44 0 0 1-45.44-45.376v-67.2a45.44 45.44 0 0 1 90.88 0v67.2a45.44 45.44 0 0 1-45.44 45.44zM373.312 199.104a45.44 45.44 0 0 1-45.44-45.376V88.064a45.44 45.44 0 0 1 90.88 0v67.2c0 23.488-20.352 43.84-45.44 43.84zM652.224 199.104a45.44 45.44 0 0 1-45.44-45.376V88.064a45.44 45.44 0 0 1 90.88 0v67.2c0 23.488-20.352 43.84-45.44 43.84zM935.872 419.712H868.48a45.44 45.44 0 1 1 0-90.752h67.392a45.44 45.44 0 1 1 0 90.752zM935.872 693.44H868.48a45.44 45.44 0 1 1 0-90.688h67.392a45.44 45.44 0 1 1 0 90.752zM153.92 419.712H88.128a45.44 45.44 0 1 1 0-90.752H155.52a45.44 45.44 0 0 1 45.44 45.376c0 25.024-21.952 45.376-47.04 45.376zM153.92 693.44H88.128a45.44 45.44 0 1 1 0-90.688H155.52a45.44 45.44 0 0 1 45.44 45.376c0 24.96-21.952 45.312-47.04 45.312z" fill="#1296db" p-id="12039"></path></svg>