<?xml version="1.0" standalone="no"?><!DOCTYPE svg PUBLIC "-//W3C//DTD SVG 1.1//EN" "http://www.w3.org/Graphics/SVG/1.1/DTD/svg11.dtd"><svg t="1727327733760" class="icon" viewBox="0 0 1024 1024" version="1.1" xmlns="http://www.w3.org/2000/svg" p-id="7401" xmlns:xlink="http://www.w3.org/1999/xlink" width="32" height="32"><path d="M307.2 409.6H256a51.2 51.2 0 0 0 0 102.4h51.2a51.2 51.2 0 0 0 0-102.4zM307.2 614.4H256a51.2 51.2 0 0 0 0 102.4h51.2a51.2 51.2 0 0 0 0-102.4z" p-id="7402"></path><path d="M102.4 102.4h614.4v153.6h102.4V102.4a102.4 102.4 0 0 0-102.4-102.4H102.4a102.4 102.4 0 0 0-102.4 102.4v819.2a102.4 102.4 0 0 0 102.4 102.4h307.2v-102.4H102.4z" p-id="7403"></path><path d="M614.4 256a51.2 51.2 0 0 0-51.2-51.2H256a51.2 51.2 0 0 0 0 102.4h307.2a51.2 51.2 0 0 0 51.2-51.2zM921.6 358.4h-409.6a102.4 102.4 0 0 0-102.4 102.4v256a102.4 102.4 0 0 0 102.4 102.4h153.6v102.4h-102.4a51.2 51.2 0 0 0 0 102.4h307.2a51.2 51.2 0 0 0 0-102.4h-102.4v-102.4h153.6a102.4 102.4 0 0 0 102.4-102.4V460.8a102.4 102.4 0 0 0-102.4-102.4z m0 358.4h-409.6V460.8h409.6z" p-id="7404"></path></svg>