<?xml version="1.0" standalone="no"?><!DOCTYPE svg PUBLIC "-//W3C//DTD SVG 1.1//EN" "http://www.w3.org/Graphics/SVG/1.1/DTD/svg11.dtd"><svg t="1727327757830" class="icon" viewBox="0 0 1024 1024" version="1.1" xmlns="http://www.w3.org/2000/svg" p-id="8576" xmlns:xlink="http://www.w3.org/1999/xlink" width="32" height="32"><path d="M916 740c-136 19.2-161.6 153.6-161.6 153.6h48c24-85.6 112.8-102.4 112.8-102.4v-51.2zM899.2 859.2c-17.6 0-32 15.2-32 34.4s14.4 34.4 32 34.4 32-15.2 32-34.4c0.8-19.2-13.6-34.4-32-34.4zM916 672v-51.2c-248 6.4-290.4 272.8-290.4 272.8h48c63.2-232.8 242.4-221.6 242.4-221.6z" p-id="8577" fill="#1296db"></path><path d="M542.4 84v175.2H192V466.4h-128v350.4h175.2v64h-128v48h383.2v-48h-128v-64h175.2V466.4h-303.2v-159.2h303.2V402.4h143.2v48h-96v32h319.2v-32h-96v-48h143.2v-318.4h-412.8z m-63.2 445.6v238.4H128v-238.4h351.2z m430.4-175.2h-319.2v-222.4h319.2V354.4z" p-id="8578" fill="#1296db"></path></svg>