<?xml version="1.0" standalone="no"?><!DOCTYPE svg PUBLIC "-//W3C//DTD SVG 1.1//EN" "http://www.w3.org/Graphics/SVG/1.1/DTD/svg11.dtd"><svg t="1726473896456" class="icon" viewBox="0 0 1024 1024" version="1.1" xmlns="http://www.w3.org/2000/svg" p-id="13451" xmlns:xlink="http://www.w3.org/1999/xlink" width="32" height="32"><path d="M816.384 742.4a35.072 35.072 0 0 1-12.8 23.04 38.656 38.656 0 0 1-25.6 9.472H246.272a38.656 38.656 0 0 1-25.6-9.472 35.072 35.072 0 0 1-12.8-23.04l-16.128-96.512A35.584 35.584 0 0 1 199.936 614.4 38.912 38.912 0 0 1 230.4 599.552h563.2a38.912 38.912 0 0 1 30.72 13.568 35.584 35.584 0 0 1 8.448 31.744z m92.416-190.72L769.28 204.8a67.84 67.84 0 0 0-62.464-41.984H317.184A67.84 67.84 0 0 0 254.72 204.8L115.456 550.912A185.088 185.088 0 0 0 102.4 600.064a190.72 190.72 0 0 0 1.792 51.2l25.6 153.6A67.328 67.328 0 0 0 153.6 844.8a64.768 64.768 0 0 0 43.52 16.128h629.504A64.768 64.768 0 0 0 870.4 844.8a67.328 67.328 0 0 0 23.04-40.192l25.6-153.6a190.72 190.72 0 0 0 1.792-51.2 185.088 185.088 0 0 0-12.288-48.896z" fill="#64B5F6" p-id="13452"></path></svg>