<?xml version="1.0" standalone="no"?><!DOCTYPE svg PUBLIC "-//W3C//DTD SVG 1.1//EN" "http://www.w3.org/Graphics/SVG/1.1/DTD/svg11.dtd"><svg t="1735802269564" class="icon" viewBox="0 0 1024 1024" version="1.1" xmlns="http://www.w3.org/2000/svg" p-id="17698" xmlns:xlink="http://www.w3.org/1999/xlink" width="32" height="32"><path d="M339.171617 0l-0.137616 0.756888a7.207633 7.207633 0 0 0-3.216772-0.756888c-78.44106997 0-153.992205 62.85606799-168.73431001 140.40263401L4.12847699 997.02728099c-2.838328 14.87972 7.070017 26.938315 22.13896001 26.93831501h121.807284l151.996775-794.611477s4.816557-42.076065 30.18948998-63.200107c25.390136-21.12404201 66.709313-17.95887599 66.70931402-17.958877H956.08654801c15.05174 0 29.55301701-12.05859398 32.39134499-26.938315L1011.25332602 0h-672.08170902z" fill="#1296db" p-id="17699"></path><path d="M838.751781 284.675716l0.034404-0.22362601H529.408413c-49.52452601 0-97.22564201 39.89141201-106.54912 89.10630301l-11.009273 57.91909699H797.467007l-0.01720199 0.05160601c0.77408999-0.01720199 1.53097697-0.05160598 2.30506699-0.05160601 45.808897 0 76.153205 35.90055101 67.775836 80.195672-8.37736899 44.29512199-52.311248 80.19567301-98.120145 80.19567301-0.77408999 0-1.513775-0.034404-2.27066202-0.051606l-0.01720198 0.051606H448.799892c-37.13909398 0-72.919231 29.91425899-79.90323799 66.82972699l-5.900283 31.18720601-9.27187201 49.008467-48.905254 258.37387401c-2.78672201 14.759307 6.98400798 26.73189101 21.846526 26.73189099h121.067598l44.67356599-235.99408701s0.70528199-15.65381001 19.36943902-31.30761999c18.62975399-15.602204 39.237737-17.82126099 39.23773699-17.82126h201.77933102l0.03440395-0.223626c123.011423-4.678941 239.486091-104.484881 262.67437103-226.98024501 23.188281-122.51256601-55.51081801-222.31850601-176.750436-226.99744599z" fill="#1296db" p-id="17700"></path></svg>