<?xml version="1.0" standalone="no"?><!DOCTYPE svg PUBLIC "-//W3C//DTD SVG 1.1//EN" "http://www.w3.org/Graphics/SVG/1.1/DTD/svg11.dtd"><svg t="1726386365326" class="icon" viewBox="0 0 1024 1024" version="1.1" xmlns="http://www.w3.org/2000/svg" p-id="1062" xmlns:xlink="http://www.w3.org/1999/xlink" width="32" height="32"><path d="M570.8 512.9l109.7-109.7c15.2-15.2 15.2-39.7 0-54.9-15.2-15.2-39.7-15.2-54.9 0L515.9 458 406.3 348.4c-15.2-15.2-39.7-15.2-54.8 0-15.2 15.2-15.2 39.7 0 54.9L461.2 513 351.5 622.7c-15.2 15.2-15.2 39.7 0 54.8 15.2 15.2 39.7 15.2 54.8 0L516 567.8l109.7 109.7c15.2 15.2 39.7 15.2 54.9 0 15.2-15.2 15.2-39.7 0-54.8L570.8 512.9z" fill="#d81e06" p-id="1063"></path><path d="M515.9 933h-0.2c-56.6 0-111.6-11.1-163.3-33-50-21.2-95-51.4-133.5-90-38.6-38.6-68.9-83.5-90-133.5-21.9-51.8-33-106.9-33-163.6 0-56.7 11.1-111.7 33-163.5 21.2-50 51.4-95 90-133.5 38.6-38.6 83.5-68.9 133.5-90 51.8-21.9 106.8-33 163.5-33s111.7 11.1 163.5 33c50 21.2 95 51.4 133.5 90 38.6 38.6 68.9 83.5 90 133.5 21.9 51.8 33 106.8 33 163.5s-11.1 111.7-33 163.5c-21.2 50-51.4 95-90 133.5-38.6 38.6-83.5 68.9-133.5 90-51.8 22-106.8 33.1-163.5 33.1z m0-794.2c-50.5 0-99.5 9.9-145.6 29.4-44.5 18.8-84.6 45.8-118.9 80.2-34.4 34.4-61.3 74.4-80.2 118.9-19.5 46.1-29.4 95.1-29.4 145.6s9.9 99.5 29.4 145.6c18.8 44.6 45.8 84.6 80.2 118.9 34.4 34.4 74.4 61.3 118.9 80.2 46.1 19.5 95 29.4 145.4 29.4h0.2c50.5 0 99.5-9.9 145.6-29.4 44.5-18.8 84.6-45.8 118.9-80.2 34.4-34.4 61.3-74.4 80.2-118.9 19.5-46.1 29.4-95.1 29.4-145.6s-9.9-99.5-29.4-145.6c-18.8-44.5-45.8-84.6-80.2-118.9C746 214 706 187.1 661.5 168.2c-46.1-19.5-95.1-29.4-145.6-29.4z" fill="#d81e06" p-id="1064"></path></svg>