<?xml version="1.0" standalone="no"?><!DOCTYPE svg PUBLIC "-//W3C//DTD SVG 1.1//EN" "http://www.w3.org/Graphics/SVG/1.1/DTD/svg11.dtd"><svg t="1726639040003" class="icon" viewBox="0 0 1024 1024" version="1.1" xmlns="http://www.w3.org/2000/svg" p-id="4278" xmlns:xlink="http://www.w3.org/1999/xlink" width="32" height="32"><path d="M800 0h-576C102.4 0 0 102.4 0 224v576C0 921.6 102.4 1024 224 1024h576c121.6 0 224-102.4 224-224v-576C1024 102.4 921.6 0 800 0z m-76.8 646.4c-12.8 12.8-38.4-44.8-38.4-38.4-6.4 19.2-12.8 38.4-32 57.6 0 0 25.6 12.8 32 32 6.4 19.2 19.2 51.2-64 57.6-51.2 6.4-89.6-25.6-89.6-25.6h-25.6s-19.2 25.6-96 25.6c-57.6 0-76.8-38.4-64-57.6 12.8-19.2 32-25.6 25.6-32-12.8-6.4-19.2-25.6-25.6-44.8 0-6.4 0-6.4-6.4-12.8 0-6.4-19.2 51.2-38.4 38.4-12.8-12.8-12.8-44.8 0-76.8s38.4-64 38.4-70.4v-38.4c6.4-19.2 12.8-12.8 12.8-19.2 0-102.4 70.4-179.2 160-179.2s160 83.2 160 179.2c0 6.4 12.8 0 12.8 19.2v38.4c0 6.4 25.6 19.2 38.4 70.4 19.2 51.2 6.4 70.4 0 76.8z" fill="#0096E4" p-id="4279"></path></svg>