<?xml version="1.0" standalone="no"?><!DOCTYPE svg PUBLIC "-//W3C//DTD SVG 1.1//EN" "http://www.w3.org/Graphics/SVG/1.1/DTD/svg11.dtd"><svg t="1735549235871" class="icon" viewBox="0 0 1024 1024" version="1.1" xmlns="http://www.w3.org/2000/svg" p-id="5926" xmlns:xlink="http://www.w3.org/1999/xlink" width="32" height="32"><path d="M73.130667 0A73.130667 73.130667 0 0 0 0 73.130667v365.738666C0 479.232 32.768 512 73.130667 512H329.386667v-73.130667H109.909333a36.608 36.608 0 0 1-36.608-36.608V109.738667c0-20.224 16.384-36.608 36.608-36.608H548.693333c20.224 0 36.522667 16.384 36.522667 36.608v219.392h72.96v-256A73.130667 73.130667 0 0 0 585.130667 0h-512zM511.914667 950.869333a36.608 36.608 0 0 0 0 73.130667h365.738666a36.608 36.608 0 0 0 0-73.130667H511.914667zM109.312 621.738667c0-20.224 16.384-36.608 36.608-36.608h182.869333v73.130666H145.92a36.608 36.608 0 0 1-36.608-36.522666zM731.306667 91.392h109.824c50.432 0 91.392 40.96 91.392 91.477333v109.738667h36.608V182.869333a128 128 0 0 0-128-128H731.306667v36.522667zM182.869333 932.608H292.693333v36.522667H182.869333a128 128 0 0 1-128-128V731.392h36.608v109.738667c0 50.517333 40.96 91.477333 91.392 91.477333z" fill="#1296db" fill-opacity=".65" p-id="5927"></path><path d="M365.312 438.869333c0-40.362667 32.768-73.130667 73.130667-73.130666h512c40.448 0 73.130667 32.768 73.130666 73.130666v365.738667a73.130667 73.130667 0 0 1-73.130666 73.130667h-512a73.130667 73.130667 0 0 1-73.130667-73.130667V438.869333z m73.984 36.522667V768c0 20.224 16.384 36.608 36.608 36.608h438.869333A36.608 36.608 0 0 0 951.296 768V475.392a36.608 36.608 0 0 0-36.522667-36.522667H475.904a36.608 36.608 0 0 0-36.608 36.522667z" fill="#1296db" fill-opacity=".65" p-id="5928"></path></svg>