<?xml version="1.0" standalone="no"?><!DOCTYPE svg PUBLIC "-//W3C//DTD SVG 1.1//EN" "http://www.w3.org/Graphics/SVG/1.1/DTD/svg11.dtd"><svg t="1727245320859" class="icon" viewBox="0 0 1152 1024" version="1.1" xmlns="http://www.w3.org/2000/svg" p-id="4682" xmlns:xlink="http://www.w3.org/1999/xlink" width="36" height="32"><path d="M587.8832 0c11.392 0 20.928 7.84 24.256 18.304l0.832 3.2 18.784 135.68c26.208 11.2 50.752 25.376 73.472 41.952l11.2 8.48 124.8-51.456a24.384 24.384 0 0 1 28.48 7.904l2.112 3.104 100.224 177.408a26.016 26.016 0 0 1-3.36 30.304l-2.656 2.464-105.984 84.736c1.984 16.384 3.52 33.024 3.52 49.92 0 10.784-0.64 21.44-1.6 32l-117.12 0.032a256 256 0 1 0-200.64 218.4L544.1712 1024h-156.736a25.344 25.344 0 0 1-24.064-18.304l-0.736-3.2-18.816-135.68a374.88 374.88 0 0 1-73.472-41.952l-11.2-8.48-124.8 51.456a24.384 24.384 0 0 1-28.48-7.904l-2.112-3.104-100.224-177.408a26.016 26.016 0 0 1 3.36-30.304l2.656-2.464 105.76-84.736a410.4 410.4 0 0 1-3.52-49.92c0-12.672 0.832-25.216 2.112-37.6l1.408-12.32-105.76-84.736a26.08 26.08 0 0 1-7.616-29.376l1.6-3.392 100.224-177.408a24.832 24.832 0 0 1 27.168-12.064l3.424 1.056 124.8 51.456a368.736 368.736 0 0 1 71.712-44.608l12.96-5.824 18.816-135.68a25.6 25.6 0 0 1 21.44-21.28L387.4352 0h200.448z m293.6 608.256a32 32 0 0 1 9.6 9.6L1120.4912 974.72A32 32 0 0 1 1093.5472 1024H634.7952a32 32 0 0 1-26.944-49.28l229.408-356.864a32 32 0 0 1 44.224-9.6zM864.1712 934.016a28.064 28.064 0 0 0-20.736 8.064c-6.144 5.376-8.832 12.288-8.832 20.736s2.688 15.36 8.832 20.736A28.352 28.352 0 0 0 864.1712 992c8.448 0 15.36-2.688 21.504-8.064a29.248 29.248 0 0 0 8.448-21.12 28.352 28.352 0 0 0-8.448-20.736 30.528 30.528 0 0 0-21.504-8.064z m26.112-216.192h-51.84l9.6 195.456h32.64l9.6-195.456z" fill="#F12727" p-id="4683"></path></svg>