<?xml version="1.0" standalone="no"?><!DOCTYPE svg PUBLIC "-//W3C//DTD SVG 1.1//EN" "http://www.w3.org/Graphics/SVG/1.1/DTD/svg11.dtd"><svg t="1726639046306" class="icon" viewBox="0 0 1024 1024" version="1.1" xmlns="http://www.w3.org/2000/svg" p-id="4436" xmlns:xlink="http://www.w3.org/1999/xlink" width="32" height="32"><path d="M364.8 396.8m-25.6 0a25.6 25.6 0 1 0 51.2 0 25.6 25.6 0 1 0-51.2 0Z" fill="#3ED214" p-id="4437"></path><path d="M499.2 396.8m-25.6 0a25.6 25.6 0 1 0 51.2 0 25.6 25.6 0 1 0-51.2 0Z" fill="#3ED214" p-id="4438"></path><path d="M569.6 531.2m-19.2 0a19.2 19.2 0 1 0 38.4 0 19.2 19.2 0 1 0-38.4 0Z" fill="#3ED214" p-id="4439"></path><path d="M678.4 531.2m-19.2 0a19.2 19.2 0 1 0 38.4 0 19.2 19.2 0 1 0-38.4 0Z" fill="#3ED214" p-id="4440"></path><path d="M806.4 0H217.6C102.4 0 0 102.4 0 217.6v582.4C0 921.6 102.4 1024 217.6 1024h582.4c121.6 0 217.6-102.4 217.6-217.6V217.6C1024 102.4 921.6 0 806.4 0zM428.8 620.8c-25.6 0-44.8-6.4-70.4-12.8l-70.4 32 19.2-57.6c-44.8-32-70.4-76.8-70.4-128 0-96 89.6-166.4 192-166.4 96 0 179.2 57.6 198.4 134.4h-19.2C518.4 422.4 441.6 492.8 441.6 576c0 12.8 0 25.6 6.4 38.4-6.4 6.4-12.8 6.4-19.2 6.4z m288 70.4l12.8 51.2-51.2-32c-19.2 6.4-38.4 12.8-57.6 12.8-96 0-166.4-64-166.4-140.8 0-76.8 70.4-140.8 166.4-140.8 89.6 0 166.4 64 166.4 140.8 0 38.4-25.6 76.8-70.4 108.8z" fill="#3ED214" p-id="4441"></path></svg>